<!DOCTYPE svg PUBLIC "-//W3C//DTD SVG 1.1//EN" "http://www.w3.org/Graphics/SVG/1.1/DTD/svg11.dtd">
<!-- Uploaded to: SVG Repo, www.svgrepo.com, Transformed by: SVG Repo Mixer Tools -->
<svg fill="#fa8500" version="1.1" id="Capa_1" xmlns="http://www.w3.org/2000/svg" xmlns:xlink="http://www.w3.org/1999/xlink" width="800px" height="800px" viewBox="0 0 37.54 37.54" xml:space="preserve" stroke="#fa8500" stroke-width="0.00037538">
<g id="SVGRepo_bgCarrier" stroke-width="0"/>
<g id="SVGRepo_tracerCarrier" stroke-linecap="round" stroke-linejoin="round"/>
<g id="SVGRepo_iconCarrier"> <g> <path d="M18.287,19.527l3.625,0.757l-3.443,7.591l0.704-6.262l-3.547-0.471l3.547-6.729L18.287,19.527z M25.371,24.207 L25.371,24.207c-1.711,2.061-2.183,4.645-2.183,6.037c0,1.098-0.707,1.512-1.012,1.639c0.195,0.129,0.334,0.34,0.334,0.592 c0,0.396-0.32,0.719-0.719,0.719c0.396,0,0.719,0.322,0.719,0.72s-0.32,0.72-0.719,0.72c0.396,0,0.719,0.321,0.719,0.719 c0,0.398-0.32,0.719-0.719,0.719h-0.779c0.039,0.086,0.063,0.176,0.063,0.27c0,0.66-1.033,1.197-2.307,1.197 S16.461,37,16.461,36.34c0-0.094,0.022-0.184,0.063-0.27h-0.779c-0.396,0-0.719-0.322-0.719-0.719c0-0.397,0.321-0.719,0.719-0.719 c-0.396,0-0.719-0.322-0.719-0.72s0.321-0.72,0.719-0.72c-0.396,0-0.719-0.321-0.719-0.719c0-0.252,0.139-0.463,0.334-0.594 c-0.304-0.127-1.012-0.539-1.012-1.639c0-1.393-0.471-3.977-2.182-6.037l0,0c-1.226-1.479-1.961-3.381-1.961-5.453 c0-2.386,0.978-4.542,2.551-6.094V8.824c-0.426-0.579-0.752-1.169-0.871-1.734c-0.1-0.315-0.151-0.672-0.151-1.03 c0-1.25,0.644-2.403,1.679-3.013c0.463-0.272,0.985-0.418,1.517-0.429c0.089-0.081,0.182-0.159,0.28-0.228 c0.595-0.412,1.299-0.512,1.955-0.347l0.248-0.596l-0.342-0.821l1.038,0.648c0.046-0.106,0.132-0.191,0.237-0.237L17.699,0 l0.82,0.343L19.338,0L18.69,1.038c0.107,0.046,0.191,0.131,0.237,0.237l1.038-0.648l-0.343,0.821l0.25,0.596 c0.655-0.164,1.358-0.064,1.955,0.347c0.104,0.071,0.203,0.152,0.297,0.238c0.494,0.035,0.978,0.172,1.412,0.414 c1.088,0.608,1.767,1.764,1.767,3.017c0,0.359-0.058,0.718-0.171,1.063c-0.114,0.534-0.436,1.092-0.852,1.642v3.439 c1.862,1.57,3.051,3.92,3.051,6.549C27.332,20.827,26.594,22.727,25.371,24.207z M22.713,3.373 c0.344,0.579,0.541,1.282,0.541,2.021c0,0.356-0.045,0.709-0.133,1.046c-0.127,0.716-0.543,1.474-1.062,2.196h1.526 c0.468-0.566,0.826-1.141,0.945-1.675c0.098-0.313,0.146-0.604,0.146-0.899c0-1.026-0.556-1.974-1.447-2.472 C23.067,3.498,22.893,3.428,22.713,3.373z M20.104,6.731c0,0.725-0.104,1.373-0.28,1.905h0.854 c0.664-0.798,1.248-1.683,1.387-2.462c0.067-0.258,0.102-0.516,0.102-0.78c0-0.889-0.367-1.693-0.955-2.104 c-0.654-0.451-1.471-0.249-1.984,0.468C19.75,4.282,20.104,5.382,20.104,6.731z M20.942,10.067h1.671V9.443h-1.671V10.067z M18.842,3.489c0.047,0.02,0.09,0.055,0.136,0.082c0.385-0.532,0.91-0.844,1.466-0.844c0.33,0,0.646,0.104,0.941,0.307 c0.672,0.468,1.09,1.372,1.09,2.36c0,0.291-0.035,0.576-0.106,0.848c-0.138,0.763-0.666,1.613-1.291,2.395h0.207 c0.604-0.767,1.098-1.586,1.229-2.331c0.08-0.31,0.118-0.607,0.118-0.911c0-1.039-0.444-1.992-1.159-2.488 C20.615,2.311,19.506,2.566,18.842,3.489z M18.69,1.86l0.354,0.563c0.201-0.139,0.414-0.255,0.638-0.33l-0.753-0.471 C18.881,1.729,18.797,1.815,18.69,1.86z M17.558,6.731c0,0.776,0.129,1.413,0.305,1.876l-0.328,0.029h1.654l-0.023-0.002 c0.183-0.464,0.315-1.112,0.315-1.903c0-1.638-0.569-2.683-0.962-2.683S17.558,5.093,17.558,6.731z M17.684,9.443v0.624h1.67V9.443 H17.684z M16.933,6.731c0-1.35,0.354-2.451,0.884-2.974c-0.519-0.717-1.333-0.92-1.983-0.468c-0.592,0.411-0.959,1.217-0.959,2.104 c0,0.264,0.035,0.524,0.11,0.819c0.136,0.76,0.712,1.632,1.374,2.423h0.854C17.037,8.104,16.933,7.455,16.933,6.731z M17.356,2.093 c0.225,0.075,0.436,0.19,0.639,0.33l0.352-0.563c-0.105-0.045-0.191-0.131-0.236-0.237L17.356,2.093z M14.406,5.394 c0,0.299,0.039,0.597,0.115,0.887c0.133,0.756,0.633,1.583,1.239,2.355h0.198c-0.619-0.772-1.146-1.611-1.279-2.357 c-0.079-0.31-0.117-0.594-0.117-0.885c0-0.988,0.419-1.893,1.094-2.36c0.293-0.203,0.607-0.307,0.938-0.307 c0.554,0,1.081,0.312,1.468,0.842c0.045-0.026,0.087-0.063,0.135-0.08c-0.418-0.58-0.994-0.917-1.603-0.917 c-0.357,0-0.714,0.115-1.029,0.334C14.85,3.402,14.406,4.356,14.406,5.394z M14.422,9.443v0.624h1.673V9.443H14.422z M13.399,8.636 h1.582c-0.525-0.729-0.941-1.496-1.07-2.222c-0.084-0.316-0.129-0.668-0.129-1.021c0-0.757,0.207-1.479,0.565-2.067 c-0.216,0.059-0.423,0.146-0.619,0.26c-0.845,0.498-1.371,1.446-1.371,2.476c0,0.297,0.045,0.591,0.134,0.874 C12.604,7.481,12.953,8.063,13.399,8.636z M24.774,18.754c0-3.313-2.692-6.006-6.005-6.006s-6.006,2.693-6.006,6.006 c0,1.393,0.488,2.75,1.372,3.821c1.796,2.161,2.575,4.832,2.728,6.805h3.809c0.103-1.192,0.455-3.101,1.589-5.135l1.141-1.668 C24.287,21.506,24.774,20.146,24.774,18.754z"/> </g> </g>
</svg>