<svg fill="#fa8500" xmlns="http://www.w3.org/2000/svg" width="32" height="32" viewBox="0 0 37.54 37.54">
  <g>
    <path d="M18.287,19.527l3.625,0.757l-3.443,7.591l0.704-6.262l-3.547-0.471l3.547-6.729L18.287,19.527z M25.371,24.207 L25.371,24.207c-1.711,2.061-2.183,4.645-2.183,6.037c0,1.098-0.707,1.512-1.012,1.639c0.195,0.129,0.334,0.34,0.334,0.592 c0,0.396-0.32,0.719-0.719,0.719c0.396,0,0.719,0.322,0.719,0.72s-0.32,0.72-0.719,0.72c0.396,0,0.719,0.321,0.719,0.719 c0,0.398-0.32,0.719-0.719,0.719h-0.779c0.039,0.086,0.063,0.176,0.063,0.27c0,0.66-1.033,1.197-2.307,1.197 S16.461,37,16.461,36.34c0-0.094,0.022-0.184,0.063-0.27h-0.779c-0.396,0-0.719-0.322-0.719-0.719c0-0.397,0.321-0.719,0.719-0.719 c-0.396,0-0.719-0.322-0.719-0.72s0.321-0.72,0.719-0.72c-0.396,0-0.719-0.321-0.719-0.719c0-0.252,0.139-0.463,0.334-0.594 c-0.304-0.127-1.012-0.539-1.012-1.639c0-1.393-0.471-3.977-2.182-6.037l0,0c-1.226-1.479-1.961-3.381-1.961-5.453 c0-2.386,0.978-4.542,2.551-6.094V8.824c-0.426-0.579-0.752-1.169-0.871-1.734c-0.1-0.315-0.151-0.672-0.151-1.03 c0-1.25,0.644-2.403,1.679-3.013c0.463-0.272,0.985-0.418,1.517-0.429c0.089-0.081,0.182-0.159,0.28-0.228 c0.595-0.412,1.299-0.512,1.955-0.347l0.248-0.596l-0.342-0.821l1.038,0.648c0.046-0.106,0.132-0.191,0.237-0.237L17.699,0 l0.82,0.343L19.338,0L18.69,1.038c0.107,0.046,0.191,0.131,0.237,0.237l1.038-0.648l-0.343,0.821l0.25,0.596 c0.655-0.164,1.358-0.064,1.955,0.347c0.104,0.071,0.203,0.152,0.297,0.238c0.494,0.035,0.978,0.172,1.412,0.414 c1.088,0.608,1.767,1.764,1.767,3.017c0,0.359-0.058,0.718-0.171,1.063c-0.114,0.534-0.436,1.092-0.852,1.642v3.439 c1.862,1.57,3.051,3.92,3.051,6.549C27.332,20.827,26.594,22.727,25.371,24.207z M24.774,18.754c0-3.313-2.692-6.006-6.005-6.006s-6.006,2.693-6.006,6.006 c0,1.393,0.488,2.75,1.372,3.821c1.796,2.161,2.575,4.832,2.728,6.805h3.809c0.103-1.192,0.455-3.101,1.589-5.135l1.141-1.668 C24.287,21.506,24.774,20.146,24.774,18.754z"/>
  </g>
</svg> 